<?xml version="1.0" encoding="utf-8"?>
<!-- Generator: Adobe Illustrator 27.5.0, SVG Export Plug-In . SVG Version: 6.00 Build 0)  -->
<svg version="1.1" xmlns="http://www.w3.org/2000/svg" xmlns:xlink="http://www.w3.org/1999/xlink" x="0px" y="0px"
	 viewBox="0 0 500 500" style="enable-background:new 0 0 500 500;" xml:space="preserve">
<g id="Floor">
	<ellipse style="fill:#F5F5F5;" cx="250" cy="337.008" rx="237.16" ry="142.002"/>
</g>
<g id="Shadows">
	<ellipse style="fill:#E0E0E0;" cx="378.83" cy="291.047" rx="41.833" ry="26.019"/>
	<ellipse style="fill:#E0E0E0;" cx="264.914" cy="349.551" rx="71.357" ry="42.04"/>
	<ellipse style="fill:#E0E0E0;" cx="389.645" cy="413.918" rx="29.993" ry="17.67"/>
	<path style="fill:#E0E0E0;" d="M286.561,212.057L75.868,332.797c-6.317,3.647-14.099,3.647-20.416,0l-8.943-5.254
		c-5.393-3.114-5.393-10.898,0-14.011l210.693-120.739c6.317-3.647,14.099-3.647,20.416,0l8.943,5.254
		C291.954,201.16,291.954,208.944,286.561,212.057z"/>
	<polygon style="fill:#E0E0E0;" points="298.641,437.648 342.292,462.85 379.759,441.4 337.365,415.662 	"/>
</g>
<g id="Grid">
	<g>
		<g>
			<g>
				<path style="fill:#455A64;" d="M282.275,432.441c-0.085,0-0.171-0.021-0.25-0.067L121.543,339.72
					c-0.239-0.138-0.321-0.443-0.183-0.683c0.138-0.239,0.444-0.322,0.683-0.183l160.482,92.654
					c0.239,0.138,0.321,0.443,0.183,0.683C282.616,432.352,282.448,432.441,282.275,432.441z"/>
				<path style="fill:#455A64;" d="M300.626,422.47c-0.085,0-0.171-0.021-0.25-0.067l-161.02-92.965
					c-0.239-0.138-0.321-0.443-0.183-0.683c0.139-0.239,0.443-0.323,0.683-0.183l161.02,92.965c0.239,0.138,0.321,0.443,0.183,0.683
					C300.967,422.38,300.799,422.47,300.626,422.47z"/>
				<path style="fill:#455A64;" d="M318.233,412.068c-0.085,0-0.171-0.021-0.25-0.067L157.17,319.155
					c-0.239-0.138-0.321-0.443-0.183-0.683s0.444-0.322,0.683-0.183l160.813,92.846c0.239,0.138,0.321,0.443,0.183,0.683
					C318.574,411.979,318.406,412.068,318.233,412.068z"/>
				<path style="fill:#455A64;" d="M335.84,401.667c-0.085,0-0.171-0.021-0.25-0.067l-160.607-92.727
					c-0.239-0.138-0.321-0.443-0.183-0.683s0.444-0.323,0.683-0.183l160.607,92.727c0.239,0.138,0.321,0.443,0.183,0.683
					C336.181,401.577,336.013,401.667,335.84,401.667z"/>
				<path style="fill:#455A64;" d="M353.447,391.266c-0.085,0-0.171-0.021-0.25-0.067l-160.401-92.607
					c-0.239-0.138-0.321-0.443-0.183-0.683c0.138-0.239,0.444-0.322,0.683-0.183l160.401,92.607
					c0.239,0.138,0.321,0.443,0.183,0.683C353.788,391.176,353.62,391.266,353.447,391.266z"/>
				<path style="fill:#455A64;" d="M371.866,381.333c-0.085,0-0.171-0.021-0.25-0.067l-160.74-92.803
					c-0.239-0.138-0.321-0.443-0.183-0.683s0.444-0.323,0.683-0.183l160.74,92.803c0.239,0.138,0.321,0.443,0.183,0.683
					C372.207,381.243,372.039,381.333,371.866,381.333z"/>
				<path style="fill:#455A64;" d="M389.645,371.031c-0.085,0-0.171-0.021-0.25-0.067l-160.96-92.931
					c-0.239-0.138-0.321-0.443-0.183-0.683c0.138-0.239,0.443-0.322,0.683-0.183l160.96,92.931c0.239,0.138,0.321,0.443,0.183,0.683
					C389.985,370.941,389.817,371.031,389.645,371.031z"/>
			</g>
			<g>
				<path style="fill:#455A64;" d="M247.474,432.089c-0.173,0-0.341-0.09-0.434-0.25c-0.138-0.239-0.056-0.545,0.183-0.683
					l142.172-82.083c0.238-0.14,0.544-0.058,0.683,0.183c0.138,0.239,0.056,0.545-0.183,0.683l-142.172,82.083
					C247.645,432.067,247.559,432.089,247.474,432.089z"/>
				<path style="fill:#455A64;" d="M229.702,421.833c-0.173,0-0.341-0.09-0.434-0.25c-0.138-0.239-0.056-0.545,0.183-0.683
					l142.155-82.073c0.238-0.141,0.544-0.057,0.683,0.183c0.138,0.239,0.056,0.545-0.183,0.683l-142.155,82.073
					C229.873,421.812,229.787,421.833,229.702,421.833z"/>
				<path style="fill:#455A64;" d="M211.95,411.565c-0.173,0-0.341-0.09-0.434-0.25c-0.138-0.239-0.056-0.545,0.183-0.683
					l142.118-82.052c0.239-0.141,0.544-0.057,0.683,0.183c0.138,0.239,0.056,0.545-0.183,0.683L212.2,411.498
					C212.121,411.544,212.035,411.565,211.95,411.565z"/>
				<path style="fill:#455A64;" d="M194.152,401.325c-0.173,0-0.341-0.09-0.434-0.25c-0.138-0.239-0.056-0.545,0.183-0.683
					l142.127-82.058c0.239-0.14,0.544-0.057,0.683,0.183c0.138,0.239,0.056,0.545-0.183,0.683l-142.127,82.058
					C194.323,401.304,194.237,401.325,194.152,401.325z"/>
				<path style="fill:#455A64;" d="M176.361,391.08c-0.173,0-0.341-0.09-0.434-0.25c-0.138-0.239-0.056-0.545,0.183-0.683
					l142.129-82.059c0.238-0.14,0.544-0.057,0.683,0.183c0.138,0.239,0.056,0.545-0.183,0.683l-142.129,82.059
					C176.532,391.059,176.446,391.08,176.361,391.08z"/>
				<path style="fill:#455A64;" d="M158.685,380.77c-0.173,0-0.341-0.09-0.434-0.25c-0.138-0.239-0.056-0.545,0.183-0.683
					l142.017-81.993c0.238-0.141,0.544-0.057,0.683,0.183c0.138,0.239,0.056,0.545-0.183,0.683l-142.017,81.993
					C158.856,380.748,158.77,380.77,158.685,380.77z"/>
				<path style="fill:#455A64;" d="M140.839,370.556c-0.173,0-0.341-0.09-0.434-0.25c-0.138-0.239-0.056-0.545,0.183-0.683
					l142.073-82.025c0.238-0.141,0.544-0.057,0.683,0.183c0.138,0.239,0.056,0.545-0.183,0.683l-142.073,82.025
					C141.01,370.534,140.924,370.556,140.839,370.556z"/>
				<path style="fill:#455A64;" d="M122.96,360.362c-0.173,0-0.341-0.09-0.434-0.25c-0.138-0.239-0.056-0.545,0.183-0.683
					l142.164-82.078c0.239-0.14,0.544-0.057,0.683,0.183c0.138,0.239,0.056,0.545-0.183,0.683l-142.164,82.078
					C123.131,360.341,123.045,360.362,122.96,360.362z"/>
			</g>
		</g>
		<path style="fill:#455A64;" d="M264.887,442.668c-0.086,0-0.172-0.022-0.25-0.066l-160.743-92.692
			c-0.155-0.09-0.25-0.255-0.25-0.434s0.095-0.344,0.25-0.433l142.718-82.382c0.154-0.09,0.345-0.089,0.5-0.001l161.367,92.892
			c0.155,0.09,0.25,0.255,0.25,0.434c0,0.18-0.096,0.345-0.251,0.434l-143.341,82.183
			C265.059,442.646,264.973,442.668,264.887,442.668z M105.145,349.476l159.743,92.115l142.337-81.606l-160.362-92.313
			L105.145,349.476z"/>
	</g>
</g>
<g id="Window">
	<g>
		<g>
			<path style="fill:#EBEBEB;" d="M58.148,326.411V171.539l-6.294-3.634v153.066C51.854,324.473,54.989,326.879,58.148,326.411z"/>
			<polygon style="fill:#EBEBEB;" points="54.671,325.77 61.151,329.434 61.151,318.014 			"/>
			<path style="fill:#FAFAFA;" d="M282.336,31.958v163.46c0,5.994-3.203,11.541-8.401,14.538L66.396,329.3
				c-3.668,2.111-8.249-0.528-8.249-4.759v-163.46c0-6.003,3.203-11.541,8.401-14.538L274.088,27.198
				C277.747,25.078,282.336,27.726,282.336,31.958z"/>
			<path style="fill:#E0E0E0;" d="M276.828,27.451L276.828,27.451c2.168,0,4.508,1.723,4.508,4.506v163.46
				c0,5.623-3.027,10.862-7.899,13.671L65.898,328.434c-0.703,0.405-1.457,0.61-2.242,0.61c-2.168,0-4.507-1.721-4.507-4.502
				v-163.46c0-5.623,3.027-10.862,7.899-13.671L274.589,28.063C275.29,27.657,276.043,27.451,276.828,27.451 M276.828,26.451
				c-0.916,0-1.855,0.234-2.74,0.747L66.549,146.543c-5.198,2.997-8.401,8.535-8.401,14.538v163.46c0,3.209,2.634,5.502,5.507,5.502
				c0.915,0,1.855-0.233,2.741-0.743l207.539-119.345c5.198-2.997,8.401-8.544,8.401-14.538V31.957
				C282.336,28.749,279.698,26.451,276.828,26.451L276.828,26.451z"/>
			<path style="fill:#BA68C8;" d="M273.448,23.739c-1.626-1.015-3.763-1.203-5.66-0.107L60.249,142.973
				c-5.195,2.999-8.395,8.542-8.395,14.541v10.392l6.294,3.634L276.034,45.75V30.919l3.656-3.656l-6.243-3.529V23.739z"/>
			<path style="fill:#BA68C8;" d="M282.336,31.957v10.154L58.148,171.539v-10.458c0-6.003,3.203-11.541,8.401-14.538L274.088,27.198
				C277.747,25.078,282.336,27.726,282.336,31.957z"/>
			<path style="opacity:0.5;fill:#FFFFFF;" d="M282.336,31.957v10.154L58.148,171.539v-10.458c0-6.003,3.203-11.541,8.401-14.538
				L274.088,27.198C277.747,25.078,282.336,27.726,282.336,31.957z"/>
			<path style="opacity:0.2;" d="M54.016,149.283c-1.391,2.472-2.162,5.296-2.162,8.231v10.392l6.294,3.634v-10.458
				c0-2.921,0.764-5.729,2.141-8.191L54.016,149.283z"/>
		</g>
		<g>
			<path style="fill:#455A64;" d="M164.259,246.111c-1.703,0-3.279-0.399-4.674-1.205c-3.367-1.944-5.221-5.994-5.221-11.405
				c0-10.915,7.69-24.234,17.143-29.692c4.686-2.706,9.121-3.125,12.487-1.181c3.367,1.944,5.222,5.994,5.222,11.405
				c0,10.915-7.69,24.234-17.143,29.691C169.328,245.311,166.667,246.111,164.259,246.111z M179.317,202.558
				c-2.209,0-4.676,0.75-7.244,2.232c-9.141,5.277-16.577,18.157-16.577,28.711c0,4.989,1.653,8.691,4.655,10.424
				c3.002,1.735,7.035,1.314,11.355-1.181c9.14-5.277,16.576-18.157,16.576-28.711c0-4.989-1.653-8.691-4.655-10.425
				C182.211,202.907,180.824,202.558,179.317,202.558z"/>
			<g>
				<path style="fill:#BA68C8;" d="M171.79,248.505c-0.313,0-0.566-0.254-0.566-0.566V195.98c0-0.313,0.254-0.566,0.566-0.566
					s0.566,0.254,0.566,0.566v51.959C172.356,248.251,172.103,248.505,171.79,248.505z"/>
				<path style="fill:#BA68C8;" d="M148.822,237.712c-0.196,0-0.386-0.102-0.491-0.283c-0.156-0.271-0.063-0.617,0.207-0.773
					l42.708-24.657c0.271-0.157,0.617-0.064,0.773,0.207c0.156,0.271,0.063,0.617-0.207,0.773l-42.708,24.657
					C149.016,237.688,148.918,237.712,148.822,237.712z"/>
				<path style="fill:#BA68C8;" d="M151.804,239.379c-0.096,0-0.193-0.024-0.283-0.076l-3.473-2.005l3.17-5.491
					c0.157-0.271,0.502-0.364,0.773-0.207c0.271,0.156,0.363,0.502,0.207,0.773l-2.604,4.51l2.493,1.439
					c0.271,0.156,0.363,0.502,0.207,0.773C152.19,239.277,152,239.379,151.804,239.379z"/>
				<path style="fill:#BA68C8;" d="M168.854,201.685c-0.096,0-0.193-0.024-0.283-0.076c-0.271-0.156-0.363-0.502-0.207-0.773
					l3.266-5.657l3.377,1.95c0.271,0.156,0.363,0.502,0.207,0.773c-0.157,0.271-0.502,0.364-0.773,0.207l-2.397-1.384l-2.699,4.676
					C169.24,201.583,169.05,201.685,168.854,201.685z"/>
			</g>
		</g>
		<g>
			<path style="fill:#BA68C8;" d="M216.323,183.393l-8.224,4.748c-0.539,0.311-0.976-0.019-0.976-0.738v-9.148
				c0-0.719,0.437-1.553,0.976-1.864l8.224-4.748c0.539-0.311,0.976,0.019,0.976,0.738v9.148
				C217.299,182.247,216.862,183.082,216.323,183.393z"/>
			<path style="fill:#BA68C8;" d="M231.899,174.264l-8.224,4.748c-0.539,0.311-0.976-0.019-0.976-0.738v-9.148
				c0-0.718,0.437-1.553,0.976-1.864l8.224-4.748c0.539-0.311,0.976,0.019,0.976,0.738v9.148
				C232.875,173.118,232.438,173.953,231.899,174.264z"/>
			<path style="fill:#BA68C8;" d="M216.323,200.888l-8.224,4.748c-0.539,0.311-0.976-0.019-0.976-0.738v-9.148
				c0-0.718,0.437-1.553,0.976-1.864l8.224-4.748c0.539-0.311,0.976,0.019,0.976,0.738v9.148
				C217.299,199.743,216.862,200.577,216.323,200.888z"/>
			<path style="fill:#BA68C8;" d="M231.899,191.759l-8.224,4.748c-0.539,0.311-0.976-0.019-0.976-0.738v-9.148
				c0-0.719,0.437-1.553,0.976-1.864l8.224-4.748c0.539-0.311,0.976,0.019,0.976,0.738v9.148
				C232.875,190.613,232.438,191.448,231.899,191.759z"/>
			<path style="fill:#BA68C8;" d="M216.323,218.384l-8.224,4.748c-0.539,0.311-0.976-0.019-0.976-0.738v-9.148
				c0-0.719,0.437-1.553,0.976-1.864l8.224-4.748c0.539-0.311,0.976,0.019,0.976,0.738v9.148
				C217.299,217.238,216.862,218.072,216.323,218.384z"/>
			<path style="fill:#BA68C8;" d="M231.899,209.254l-8.224,4.748c-0.539,0.311-0.976-0.019-0.976-0.738v-9.148
				c0-0.718,0.437-1.553,0.976-1.864l8.224-4.748c0.539-0.311,0.976,0.019,0.976,0.738v9.148
				C232.875,208.109,232.438,208.943,231.899,209.254z"/>
			<path style="fill:#BA68C8;" d="M247.475,165.135l-8.224,4.748c-0.539,0.311-0.976-0.019-0.976-0.738v-9.148
				c0-0.718,0.437-1.553,0.976-1.864l8.224-4.748c0.539-0.311,0.976,0.019,0.976,0.738v9.148
				C248.451,163.989,248.014,164.824,247.475,165.135z"/>
			<path style="fill:#BA68C8;" d="M247.475,182.63l-8.224,4.748c-0.539,0.311-0.976-0.019-0.976-0.738v-9.148
				c0-0.719,0.437-1.553,0.976-1.864l8.224-4.748c0.539-0.311,0.976,0.019,0.976,0.738v9.148
				C248.451,181.484,248.014,182.319,247.475,182.63z"/>
			<path style="fill:#BA68C8;" d="M247.475,200.125l-8.224,4.748c-0.539,0.311-0.976-0.019-0.976-0.738v-9.148
				c0-0.718,0.437-1.553,0.976-1.864l8.224-4.748c0.539-0.311,0.976,0.019,0.976,0.738v9.148
				C248.451,198.979,248.014,199.814,247.475,200.125z"/>
			<path style="fill:#BA68C8;" d="M263.051,156.006l-8.224,4.748c-0.539,0.311-0.976-0.019-0.976-0.738v-9.148
				c0-0.719,0.437-1.553,0.976-1.864l8.224-4.748c0.539-0.311,0.976,0.019,0.976,0.738v9.148
				C264.027,154.86,263.59,155.694,263.051,156.006z"/>
			<path style="fill:#BA68C8;" d="M263.051,173.501l-8.224,4.748c-0.539,0.311-0.976-0.019-0.976-0.738v-9.148
				c0-0.718,0.437-1.553,0.976-1.864l8.224-4.748c0.539-0.311,0.976,0.019,0.976,0.738v9.148
				C264.027,172.355,263.59,173.19,263.051,173.501z"/>
			<path style="opacity:0.2;" d="M216.323,200.888l-8.224,4.748c-0.539,0.311-0.976-0.019-0.976-0.738v-9.148
				c0-0.718,0.437-1.553,0.976-1.864l8.224-4.748c0.539-0.311,0.976,0.019,0.976,0.738v9.148
				C217.299,199.743,216.862,200.577,216.323,200.888z"/>
			<path style="opacity:0.2;" d="M231.899,191.759l-8.224,4.748c-0.539,0.311-0.976-0.019-0.976-0.738v-9.148
				c0-0.719,0.437-1.553,0.976-1.864l8.224-4.748c0.539-0.311,0.976,0.019,0.976,0.738v9.148
				C232.875,190.613,232.438,191.448,231.899,191.759z"/>
			<path style="opacity:0.2;" d="M247.475,182.63l-8.224,4.748c-0.539,0.311-0.976-0.019-0.976-0.738v-9.148
				c0-0.719,0.437-1.553,0.976-1.864l8.224-4.748c0.539-0.311,0.976,0.019,0.976,0.738v9.148
				C248.451,181.484,248.014,182.319,247.475,182.63z"/>
			<path style="opacity:0.2;" d="M263.051,173.501l-8.224,4.748c-0.539,0.311-0.976-0.019-0.976-0.738v-9.148
				c0-0.718,0.437-1.553,0.976-1.864l8.224-4.748c0.539-0.311,0.976,0.019,0.976,0.738v9.148
				C264.027,172.355,263.59,173.19,263.051,173.501z"/>
			<path style="fill:#BA68C8;" d="M263.051,190.996l-8.224,4.748c-0.539,0.311-0.976-0.019-0.976-0.738v-9.148
				c0-0.718,0.437-1.553,0.976-1.864l8.224-4.748c0.539-0.311,0.976,0.019,0.976,0.738v9.148
				C264.027,189.85,263.59,190.685,263.051,190.996z"/>
			<path style="opacity:0.3;" d="M216.323,218.384l-8.224,4.748c-0.539,0.311-0.976-0.019-0.976-0.738v-9.148
				c0-0.719,0.437-1.553,0.976-1.864l8.224-4.748c0.539-0.311,0.976,0.019,0.976,0.738v9.148
				C217.299,217.238,216.862,218.072,216.323,218.384z"/>
			<path style="opacity:0.3;" d="M231.899,209.254l-8.224,4.748c-0.539,0.311-0.976-0.019-0.976-0.738v-9.148
				c0-0.718,0.437-1.553,0.976-1.864l8.224-4.748c0.539-0.311,0.976,0.019,0.976,0.738v9.148
				C232.875,208.109,232.438,208.943,231.899,209.254z"/>
			<path style="opacity:0.3;" d="M247.475,200.125l-8.224,4.748c-0.539,0.311-0.976-0.019-0.976-0.738v-9.148
				c0-0.718,0.437-1.553,0.976-1.864l8.224-4.748c0.539-0.311,0.976,0.019,0.976,0.738v9.148
				C248.451,198.979,248.014,199.814,247.475,200.125z"/>
			<path style="opacity:0.3;" d="M263.051,190.996l-8.224,4.748c-0.539,0.311-0.976-0.019-0.976-0.738v-9.148
				c0-0.718,0.437-1.553,0.976-1.864l8.224-4.748c0.539-0.311,0.976,0.019,0.976,0.738v9.148
				C264.027,189.85,263.59,190.685,263.051,190.996z"/>
		</g>
		<g>
			<path style="fill:#455A64;" d="M121.933,212.169l-40.246,23.236c-2.637,1.522-4.775-0.094-4.775-3.61V187.03
				c0-3.516,2.138-7.601,4.775-9.123l40.246-23.236c2.637-1.522,4.775,0.094,4.775,3.61v44.766
				C126.708,206.562,124.57,210.647,121.933,212.169z"/>
			<g>
				<polygon style="fill:#BA68C8;" points="109.621,181.208 88.531,193.385 93.999,184.515 115.089,172.339 				"/>
				<polygon style="opacity:0.2;fill:#FFFFFF;" points="109.621,181.208 88.531,193.385 93.999,184.515 115.089,172.339 				"/>
				<polygon style="fill:#BA68C8;" points="109.621,205.561 88.531,217.737 88.531,193.385 109.621,181.208 				"/>
				<polygon style="fill:#BA68C8;" points="109.621,181.208 115.089,172.339 115.089,196.692 109.621,205.561 				"/>
				<polygon style="opacity:0.2;" points="109.621,181.208 115.089,172.339 115.089,196.692 109.621,205.561 				"/>
			</g>
			<path style="fill:#455A64;" d="M190.182,172.765l-40.246,23.236c-2.637,1.522-4.775-0.094-4.775-3.61v-44.766
				c0-3.516,2.138-7.601,4.775-9.123l40.246-23.236c2.637-1.522,4.775,0.094,4.775,3.61v44.766
				C194.957,167.158,192.82,171.243,190.182,172.765z"/>
			<g>
				<polygon style="fill:#BA68C8;" points="177.87,141.804 156.78,153.981 162.248,145.112 183.338,132.935 				"/>
				<polygon style="fill:#BA68C8;" points="177.87,166.157 156.78,178.333 156.78,153.981 177.87,141.804 				"/>
				<polygon style="fill:#BA68C8;" points="177.87,141.804 183.338,132.935 183.338,157.288 177.87,166.157 				"/>
				<polygon style="opacity:0.2;" points="177.87,141.804 183.338,132.935 183.338,157.288 177.87,166.157 				"/>
				<polygon style="opacity:0.2;" points="156.78,153.981 162.248,145.112 162.248,169.464 156.78,178.333 				"/>
				<polygon style="opacity:0.3;" points="177.87,166.157 156.78,178.333 162.248,169.464 183.338,157.288 				"/>
				<polygon style="opacity:0.2;fill:#FFFFFF;" points="177.87,141.804 156.78,153.981 162.248,145.112 183.338,132.935 				"/>
			</g>
			<path style="fill:#455A64;" d="M258.432,133.362l-40.246,23.236c-2.637,1.522-4.775-0.094-4.775-3.61v-44.766
				c0-3.516,2.138-7.601,4.775-9.123l40.246-23.236c2.637-1.522,4.775,0.094,4.775,3.61v44.766
				C263.207,127.755,261.069,131.839,258.432,133.362z"/>
			<g>
				<g>
					<path style="fill:#BA68C8;" d="M225.03,114.988c-0.108,0-0.216-0.043-0.295-0.125c-0.131-0.135-0.154-0.342-0.055-0.502
						l5.467-8.869c0.036-0.058,0.085-0.106,0.145-0.141l21.09-12.176c0.163-0.094,0.37-0.066,0.501,0.07
						c0.131,0.135,0.154,0.342,0.055,0.502l-5.468,8.869c-0.036,0.058-0.085,0.106-0.145,0.141l-21.09,12.176
						C225.172,114.97,225.101,114.988,225.03,114.988z M230.793,106.012l-4.558,7.393l19.588-11.31l4.558-7.393L230.793,106.012z
						 M246.12,102.4h0.01H246.12z"/>
					<path style="fill:#BA68C8;" d="M225.03,139.341c-0.071,0-0.142-0.019-0.206-0.055c-0.127-0.073-0.206-0.209-0.206-0.356
						v-24.353c0-0.147,0.079-0.283,0.206-0.356l21.09-12.176c0.128-0.073,0.284-0.073,0.412,0c0.127,0.073,0.206,0.209,0.206,0.356
						v24.353c0,0.147-0.079,0.283-0.206,0.356l-21.09,12.176C225.172,139.322,225.102,139.341,225.03,139.341z M225.442,114.814
						v23.402l20.267-11.701v-23.402L225.442,114.814z M246.12,126.753h0.01H246.12z"/>
					<path style="fill:#BA68C8;" d="M230.498,130.472c-0.071,0-0.142-0.019-0.206-0.055c-0.127-0.073-0.206-0.209-0.206-0.356
						v-24.353c0-0.147,0.079-0.283,0.206-0.356l21.09-12.176c0.128-0.073,0.284-0.073,0.412,0c0.127,0.073,0.206,0.209,0.206,0.356
						v24.353c0,0.147-0.079,0.283-0.206,0.356l-21.09,12.176C230.64,130.453,230.569,130.472,230.498,130.472z M230.909,105.945
						v23.402l20.267-11.701V94.244L230.909,105.945z M251.588,117.884h0.01H251.588z"/>
					<path style="fill:#BA68C8;" d="M246.12,127.165c-0.037,0-0.075-0.005-0.112-0.016c-0.177-0.05-0.299-0.212-0.299-0.396V102.4
						c0-0.076,0.021-0.151,0.061-0.216l5.468-8.869c0.097-0.157,0.284-0.233,0.463-0.18c0.177,0.05,0.299,0.212,0.299,0.396v24.353
						c0,0.076-0.021,0.151-0.061,0.216l-5.468,8.869C246.394,127.093,246.26,127.165,246.12,127.165z M246.532,102.517v22.784
						l4.645-7.534V94.983L246.532,102.517z"/>
				</g>
				<path style="fill:#BA68C8;" d="M225.03,139.341c-0.074,0-0.148-0.02-0.215-0.061c-0.194-0.12-0.254-0.373-0.135-0.566
					l5.467-8.869c0.12-0.194,0.373-0.254,0.566-0.135s0.254,0.373,0.135,0.566l-5.467,8.869
					C225.303,139.271,225.168,139.341,225.03,139.341z"/>
			</g>
		</g>
		<path style="fill:#BA68C8;" d="M121.933,238.195l-40.246,23.236c-2.637,1.522-4.775-0.094-4.775-3.61l0,0
			c0-3.516,2.138-7.601,4.775-9.123l40.246-23.236c2.637-1.522,4.775,0.094,4.775,3.61l0,0
			C126.708,232.588,124.57,236.672,121.933,238.195z"/>
		<path style="fill:#BA68C8;" d="M121.933,256.752l-40.246,23.236c-2.637,1.522-4.775-0.094-4.775-3.61l0,0
			c0-3.516,2.138-7.601,4.775-9.123l40.246-23.236c2.637-1.522,4.775,0.094,4.775,3.61l0,0
			C126.708,251.145,124.57,255.23,121.933,256.752z"/>
		<path style="fill:#BA68C8;" d="M121.933,275.31l-40.246,23.236c-2.637,1.522-4.775-0.094-4.775-3.61l0,0
			c0-3.516,2.138-7.601,4.775-9.123l40.246-23.236c2.637-1.522,4.775,0.094,4.775,3.61l0,0
			C126.708,269.702,124.57,273.787,121.933,275.31z"/>
	</g>
</g>
<g id="Character">
	<g>
		<path style="fill:#263238;" d="M404.262,285.541c0,0,2.67,3.827,1.148,6.48c-0.703,1.225-1.664,2.106-2.496,2.701
			c-1.308,0.935-2.473,2.043-3.495,3.283c-2.727,3.307-8.256,8.856-13.552,7.18c-7.414-2.346,0.671-8.337,0.671-8.337
			L404.262,285.541z"/>
		<path style="fill:#FFA8A7;" d="M394.877,276.373l1.032,9.168l-5.901,8.289l-3.47,3.019c0,0,2.168,5.684,8.931-1.605
			c5.04-5.432,8.793-9.703,8.793-9.703v-9.168H394.877z"/>
		<path style="fill:#263238;" d="M372.373,278.611c0,0,2.391,4.008,0.683,6.546c-0.789,1.172-1.81,1.983-2.682,2.517
			c-1.371,0.84-2.612,1.862-3.72,3.026c-2.956,3.105-8.865,8.246-14.029,6.197c-7.228-2.868,1.263-8.268,1.263-8.268
			L372.373,278.611z"/>
		<path style="fill:#FFA8A7;" d="M363.665,268.798l0.377,9.219l-6.476,7.847l-3.676,2.764c0,0,1.758,5.824,9.023-0.964
			c5.415-5.059,9.462-9.052,9.462-9.052l0.653-9.145L363.665,268.798z"/>
		<path style="fill:#455A64;" d="M366.259,160.235l-5.78,57.411c-0.022,0.217-0.028,0.436-0.019,0.654l2.314,54.566
			c0,0,4.617,2.969,11.509,0c0,0,4.892-34.422,2.386-48.54c-0.192-1.079-0.142-2.179,0.184-3.225
			c2.396-7.688,12.341-40.049,13.155-50.118L366.259,160.235z"/>
		<path style="fill:#37474F;" d="M384.966,181.418l-15.104-9.766c0,0,0.733,6.652,8.354,12.651l3.232,21.602
			c1.912-6.517,4.017-13.968,5.668-20.536L384.966,181.418z"/>
		<path style="fill:#455A64;" d="M368.538,160.235c0.248,0.229-3.946,16.833,11.947,21.671l4.892,43.656l8.736,54.314
			c0,0,6.38,2.376,10.61-1.736c0,0,2.713-36.049-2.655-52.93c-0.429-1.349-0.572-2.764-0.357-4.163
			c1.429-9.314,6.456-45.89-0.512-58.923L368.538,160.235z"/>
		<path style="fill:#263238;" d="M401.89,87.095l8.538,36.903c0.55,2.378,0.242,4.874-0.87,7.047l0,0
			c-2.716,5.304-9.34,7.224-14.471,4.194l-19.22-11.35V87.095H401.89z"/>
		<path style="fill:#E9A5A5;" d="M376.998,116.18c-3.934-0.338-7.764,1.378-10.13,4.54c-3.18,4.16-15.37,20-15.37,20
			s-18-9-18.85-10.06s-0.38-3.22-0.14-4.4s0.65-3.83,0.91-4.57c0.46-1.29-1.45-0.94-2.58,0.27s-1.62,3.57-2.19,4
			s-4.83-4.51-6.91-6.88s-3-4-4.43-3.05c-1,0.7-0.36,2.11,1.13,4.14c0.694,0.861,1.335,1.762,1.92,2.7
			c0.17,0.36-0.37,0.65-0.59,0.85c-0.4,0.36-1.12,1-1.17,1.51c0.01,0.308-0.01,0.616-0.06,0.92c-0.19,0.68-1,1-1.26,1.66
			c-0.17,0.47,0,1-0.08,1.51c-0.06,0.32-0.24,0.61-0.3,0.94c-0.042,0.65,0.203,1.286,0.67,1.74c1.45,1.74,3.44,2.4,5.35,3.46
			c1.59,0.88,3.23,1.26,5.06,2.07s23.05,15.53,26.41,13.67s22.239-21.166,22.239-21.166
			C381.627,121.724,376.998,116.18,376.998,116.18z"/>
		<path style="fill:#BA68C8;" d="M375.046,114.814c0,0-4.434-0.557-9.852,5.887c-5.418,6.445-8.093,9.751-8.093,9.751
			s4.215,5.208,9.252,7.92L375.046,114.814z"/>
		<path style="opacity:0.2;" d="M375.046,114.814c0,0-4.434-0.557-9.852,5.887c-5.418,6.445-8.093,9.751-8.093,9.751
			s4.215,5.208,9.252,7.92L375.046,114.814z"/>
		<path style="fill:#BA68C8;" d="M375.046,114.814l18.391,1.265c4.499,0.309,7.925,4.175,7.658,8.677
			c-0.389,6.575-1.627,16.216-5.284,25.418c0,0,4.416,6.605,5.39,11.949c0,0-4.944,4.663-18.023,4.663
			c-13.078,0-16.919-6.552-16.919-6.552l1.858-16.699c0,0-4.088-5.847-2.46-13.23C367.284,122.923,375.046,114.814,375.046,114.814z
			"/>
		<g>
			<path style="fill:#263238;" d="M396.461,79.165c0,0,1.132-4.304,1.9-4.231c0.768,0.074,0.675,3.845,0.675,3.845
				s3.581-0.317,3.204,0.713c-0.376,1.03-4.546,2.078-4.546,2.078L396.461,79.165z"/>
			<path style="fill:#263238;" d="M402.046,94.15c-1.636,12.16-11.87,12.16-11.87,12.16l-21.48-9.449c0,0-1.621-1.418-2.114-4.68
				c-0.171-1.117-0.213-2.457-0.005-4.026c0-0.01,0.005-0.026,0.005-0.036c0.686-5.111,4.509-10.613,12.841-12.301
				c1.662-0.343,3.506-0.53,5.543-0.53c0.93,0,1.823,0.042,2.68,0.135c6.499,0.634,11.012,3.657,13.173,8.353
				c0.473,1.029,0.831,2.135,1.07,3.319C402.331,89.225,402.389,91.589,402.046,94.15z"/>
			<g>
				<g>
					<polygon style="fill:#FFA8A7;" points="390.174,115.776 379.759,123.89 379.759,98.057 390.174,98.057 					"/>
				</g>
			</g>
			<path style="fill:#F28F8F;" d="M379.759,111.777c4.007-1.547,8.193-4.651,10.415-9.905v-3.815h-10.415V111.777z"/>
			<path style="fill:#FFA8A7;" d="M382.007,78.913c-3.95,0-12.348,2.201-13.317,12.535c-0.969,10.334-0.034,18.353,5.3,19.121
				c5.334,0.768,17.716-3.092,19.374-16.471S385.86,78.913,382.007,78.913z"/>
			<polygon style="fill:#F28F8F;" points="375.788,95.822 375.788,101.916 372.22,100.821 			"/>
			<g>
				<circle style="fill:#263238;" cx="379.759" cy="96.876" r="1.242"/>
				<path style="fill:#263238;" d="M372.834,96.01c0,0.686-0.556,1.242-1.242,1.242c-0.686,0-1.242-0.556-1.242-1.242
					c0-0.686,0.556-1.242,1.242-1.242C372.278,94.768,372.834,95.324,372.834,96.01z"/>
				<path style="fill:#263238;" d="M370.08,93.425l2.428-1.442c0,0-0.932-0.968-1.859-0.387
					C369.72,92.178,370.08,93.425,370.08,93.425z"/>
			</g>
			<path style="fill:#F28F8F;" d="M374.11,104.386c0,0,1.971,0.18,3.344-0.896c0,0,0.228,1.761-1.247,2.098
				C374.732,105.926,374.11,104.386,374.11,104.386z"/>
			<path style="fill:#263238;" d="M371.993,82.427c0,0,1.485,14.271,20.887,14.717c0,0,5.862-14.18-5.724-18.788
				C375.571,73.749,371.993,82.427,371.993,82.427z"/>
			<path style="fill:#FFA8A7;" d="M389.636,97.658c-1.247,2.16-0.927,4.785,0.813,5.683c1.118,0.578,4.419-0.668,5.665-2.828
				c1.247-2.16,0.546-4.014-1.15-4.993C393.269,94.542,390.883,95.499,389.636,97.658z"/>
		</g>
		<path style="fill:#FFA8A7;" d="M379.759,115.138c0,0-7.047,8.751,0,8.751s10.415-8.114,10.415-8.114L379.759,115.138z"/>
		<path style="fill:#FFA8A7;" d="M414.901,147.339c-1.644-7.021-5.914-15.339-8.259-19.416l-9.849,6.259
			c0,0,5.735,9.837,7.486,14.469c0.954,5.512,0.557,15.432-0.565,20.84c-0.209,0.951-0.728,1.774-1.462,2.314
			c-1.961,1.473-2.704,2.941-4.138,4.766c-1.13,1.432-2.135,1.812-1.949,2.244c0.537,0.999,1.672,1.397,2.597,0.911
			c0.999-0.48,1.937-1.092,2.795-1.823c-0.592,2.061-1.488,3.99-2.652,5.714c-2.639,3.96-2.626,6.348,3.154,6.224
			c3.627-0.082,6.389-2.631,8.613-11.517c0.646-2.564,1.923-6.969,2.457-10.286C414.904,157.097,415.399,151.993,414.901,147.339z"
			/>
		<path style="fill:#BA68C8;" d="M394.302,116.184c0,0-6.511,6.599,6.019,25.463c0,0,7.602-0.415,11.122-5.909l-5.053-10.848
			C404.149,120.082,399.571,116.785,394.302,116.184L394.302,116.184z"/>
		<path style="opacity:0.2;" d="M394.302,116.184c0,0-6.511,6.599,6.019,25.463c0,0,7.602-0.415,11.122-5.909l-5.053-10.848
			C404.149,120.082,399.571,116.785,394.302,116.184L394.302,116.184z"/>
	</g>
</g>
<g id="Objects">
	<g>
		<g>
			<path style="fill:#BA68C8;" d="M402.826,384.628h-26.362v27.937l0,0c0,1.948,1.287,3.895,3.861,5.381
				c5.147,2.972,13.493,2.972,18.641,0c2.574-1.486,3.861-3.434,3.861-5.381l0,0V384.628z"/>
			<path style="opacity:0.4;" d="M402.826,384.628h-26.362v27.937l0,0c0,1.948,1.287,3.895,3.861,5.381
				c5.147,2.972,13.493,2.972,18.641,0c2.574-1.486,3.861-3.434,3.861-5.381l0,0V384.628z"/>
			<ellipse style="fill:#BA68C8;" cx="389.645" cy="384.648" rx="13.181" ry="7.61"/>
		</g>
		<g>
			<path style="fill:#BA68C8;" d="M413.014,370.547h-46.739v10.582l0,0c0,3.453,2.282,6.906,6.845,9.54
				c9.126,5.269,23.923,5.269,33.049,0c4.563-2.634,6.845-6.087,6.845-9.54l0,0V370.547z"/>
			<path style="opacity:0.2;" d="M413.014,370.547h-46.739v10.582l0,0c0,3.453,2.282,6.906,6.845,9.54
				c9.126,5.269,23.923,5.269,33.049,0c4.563-2.634,6.845-6.087,6.845-9.54l0,0V370.547z"/>
			<path style="fill:#BA68C8;" d="M406.169,380.123c-9.126,5.269-23.923,5.269-33.049,0c-9.126-5.269-9.126-13.812,0-19.081
				c9.126-5.269,23.923-5.269,33.049,0C415.296,366.311,415.296,374.854,406.169,380.123z"/>
		</g>
		<g>
			<path style="fill:#BA68C8;" d="M402.826,338.39h-26.362v27.937l0,0c0,1.947,1.287,3.895,3.861,5.381
				c5.147,2.972,13.493,2.972,18.641,0c2.574-1.486,3.861-3.434,3.861-5.381l0,0V338.39z"/>
			<path style="opacity:0.2;" d="M402.826,338.39h-26.362v27.937l0,0c0,1.947,1.287,3.895,3.861,5.381
				c5.147,2.972,13.493,2.972,18.641,0c2.574-1.486,3.861-3.434,3.861-5.381l0,0V338.39z"/>
			<ellipse style="fill:#BA68C8;" cx="389.645" cy="338.41" rx="13.181" ry="7.61"/>
		</g>
	</g>
	<g>
		<polygon style="fill:#BA68C8;" points="342.137,455.391 308.035,435.702 308.035,402.076 325.086,392.345 342.137,421.765 		"/>
		<polygon style="opacity:0.2;fill:#FFFFFF;" points="342.137,455.391 308.035,435.702 308.035,402.076 325.086,392.345 
			342.137,421.765 		"/>
		<polygon style="fill:#BA68C8;" points="342.137,421.765 325.086,392.345 347.624,379.333 364.674,408.753 		"/>
		<polygon style="fill:#BA68C8;" points="342.137,455.391 342.137,421.765 364.674,408.753 364.674,442.379 		"/>
		<polygon style="opacity:0.2;" points="342.137,455.391 342.137,421.765 364.674,408.753 364.674,442.379 		"/>
	</g>
</g>
<g id="_x33_d_model">
	<g>
		<g>
			<polygon style="fill:#BA68C8;" points="248.263,356.591 168.173,278.934 181.852,224.635 261.942,302.292 			"/>
			<polygon style="fill:#BA68C8;" points="346.751,278.153 261.942,302.292 248.263,356.591 333.072,332.452 			"/>
			<polygon style="opacity:0.2;" points="346.751,278.153 261.942,302.292 248.263,356.591 333.072,332.452 			"/>
			<polygon style="fill:#BA68C8;" points="266.661,200.496 181.852,224.635 261.942,302.292 346.751,278.153 			"/>
			<polygon style="opacity:0.2;fill:#FFFFFF;" points="266.661,200.496 181.852,224.635 261.942,302.292 346.751,278.153 			"/>
		</g>
		<g>
			<path style="fill:#BA68C8;" d="M310.686,225.873l-75.142-18.929l-8.571,34.025l0,0c-1.398,5.551,0.871,12.027,7.14,18.11
				c12.538,12.167,36.327,18.16,53.133,13.385c8.403-2.387,13.47-7.015,14.868-12.566l0,0L310.686,225.873z"/>
			<path style="opacity:0.2;" d="M310.686,225.873l-75.142-18.929l-8.571,34.025l0,0c-1.398,5.551,0.871,12.027,7.14,18.11
				c12.538,12.167,36.327,18.16,53.133,13.385c8.403-2.387,13.47-7.015,14.868-12.566l0,0L310.686,225.873z"/>
			
				<ellipse transform="matrix(0.2443 -0.9697 0.9697 0.2443 -3.5216 428.4122)" style="fill:#BA68C8;" cx="273.1" cy="216.465" rx="22.369" ry="38.745"/>
		</g>
	</g>
</g>
</svg>
